<?xml version="1.0" encoding="UTF-8"?>
<svg width="800" height="600" viewBox="0 0 800 600" fill="none" xmlns="http://www.w3.org/2000/svg">
  <!-- Dashboard Background -->
  <rect width="800" height="600" rx="12" fill="#F8FAFC"/>
  
  <!-- Header -->
  <rect x="20" y="20" width="760" height="60" rx="8" fill="#0B2239"/>
  <rect x="40" y="40" width="120" height="20" rx="4" fill="#00A6E6"/>
  
  <!-- Sidebar -->
  <rect x="20" y="100" width="200" height="480" rx="8" fill="white"/>
  <rect x="40" y="120" width="160" height="40" rx="4" fill="#FFD700"/>
  <rect x="40" y="180" width="160" height="20" rx="4" fill="#E2E8F0"/>
  <rect x="40" y="220" width="160" height="20" rx="4" fill="#E2E8F0"/>
  <rect x="40" y="260" width="160" height="20" rx="4" fill="#E2E8F0"/>
  
  <!-- Main Content -->
  <rect x="240" y="100" width="540" height="220" rx="8" fill="white"/>
  <rect x="260" y="120" width="200" height="40" rx="4" fill="#0B2239"/>
  <rect x="260" y="180" width="500" height="120" rx="4" fill="#F1F5F9"/>
  
  <!-- Stats Cards -->
  <rect x="240" y="340" width="260" height="100" rx="8" fill="#00A6E6"/>
  <rect x="520" y="340" width="260" height="100" rx="8" fill="#FFD700"/>
  
  <!-- Bottom Section -->
  <rect x="240" y="460" width="540" height="120" rx="8" fill="white"/>
  <rect x="260" y="480" width="500" height="80" rx="4" fill="#F1F5F9"/>
</svg>
